<svg xmlns="http://www.w3.org/2000/svg" width="16" height="16" fill="none" viewBox="0 0 16 16">
    <path fill="#1F28EB" fill-rule="evenodd" d="M9.663 11.33c-.182.182-.477.182-.66 0l.29-.289-.29.29-.03-.032-.086-.086-.304-.308c-.25-.257-.587-.603-.923-.96-.335-.356-.675-.728-.934-1.035-.128-.152-.243-.297-.328-.419-.042-.06-.083-.125-.116-.188C6.26 8.259 6.2 8.143 6.2 8c0-.142.06-.259.082-.303.033-.063.074-.128.116-.188.085-.122.2-.266.328-.419.259-.307.6-.679.934-1.035.336-.357.672-.703.923-.96l.304-.308.086-.086.03-.03.33.33.33.33-.029.028-.084.085-.3.305c-.249.253-.58.595-.91.946-.332.352-.658.71-.9.996-.103.123-.186.227-.246.31.06.081.143.185.246.308.242.287.568.644.9.996.33.351.661.693.91.947l.3.304.084.085.029.029c.182.182.183.478 0 .66zM7.111 7.875c-.004-.012-.006-.013 0 0zM9.663 4.67c.183.182.183.478 0 .66L9.333 5l-.33-.33c.183-.182.478-.182.66 0z" clip-rule="evenodd"/>
</svg>
