<svg width="18" height="18" viewBox="0 0 18 18" fill="none" xmlns="http://www.w3.org/2000/svg">
    <path fill-rule="evenodd" clip-rule="evenodd" d="M13.142 5.547v1.15c1.292.403 2.233 1.573 2.233 2.97v3.702c0 1.73-1.434 3.131-3.2 3.131H5.826c-1.768 0-3.202-1.402-3.202-3.131V9.666c0-1.396.942-2.566 2.233-2.969v-1.15C4.866 3.311 6.718 1.5 8.988 1.5c2.302 0 4.154 1.811 4.154 4.047zM9.004 2.804c1.547 0 2.804 1.23 2.804 2.743v.988H6.192V5.532c.007-1.505 1.265-2.728 2.812-2.728zm.663 9.537a.66.66 0 0 1-.67.656.658.658 0 0 1-.664-.656v-1.654c0-.358.297-.649.663-.649.374 0 .67.29.67.649v1.654z" fill="#130F26"/>
</svg>
