<svg width="18" height="18" viewBox="0 0 18 18" fill="none" xmlns="http://www.w3.org/2000/svg">
    <path fill-rule="evenodd" clip-rule="evenodd" d="M5.753 1.499h6.502c2.542 0 4.245 1.785 4.245 4.44v6.128c0 2.648-1.703 4.432-4.245 4.432H5.752c-2.542 0-4.252-1.784-4.252-4.432V5.94c0-2.655 1.71-4.44 4.253-4.44zm5.505 9.75a.65.65 0 0 0 0-.922L9.922 8.992l1.335-1.335a.66.66 0 0 0 0-.93.66.66 0 0 0-.93 0L9 8.062 7.665 6.727a.66.66 0 0 0-.93 0 .66.66 0 0 0 0 .93L8.07 8.992 6.735 10.32a.66.66 0 0 0 .465 1.125.654.654 0 0 0 .465-.196L9 9.922l1.335 1.327a.617.617 0 0 0 .457.196.654.654 0 0 0 .466-.196z" fill="#130F26"/>
</svg>
