<svg width="20" height="20" fill="none" xmlns="http://www.w3.org/2000/svg">
    <path fill-rule="evenodd" clip-rule="evenodd" d="M13.814 18.64H6.461c-2.868 0-4.794-2.012-4.794-5.007V6.705c0-2.995 1.926-5.008 4.794-5.008h3.116a.625.625 0 0 1 0 1.25H6.46c-2.153 0-3.544 1.475-3.544 3.758v6.928c0 2.283 1.39 3.758 3.544 3.758h7.353c2.154 0 3.545-1.475 3.545-3.758v-3.357a.625.625 0 0 1 1.25 0v3.357c0 2.995-1.927 5.008-4.795 5.008" fill="#000"/>
    <path fill-rule="evenodd" clip-rule="evenodd" d="M7.39 12.857h2.48c.317 0 .614-.122.838-.347l6.258-6.257c.256-.257.398-.599.398-.962 0-.364-.142-.707-.398-.963L15.95 3.314a1.367 1.367 0 0 0-1.925 0L7.798 9.54a1.177 1.177 0 0 0-.346.807l-.062 2.509zm2.48 1.25H6.75a.625.625 0 0 1-.625-.64l.078-3.15a2.426 2.426 0 0 1 .712-1.66l6.228-6.228a2.616 2.616 0 0 1 3.693 0l1.014 1.015c.494.493.766 1.149.765 1.847a2.59 2.59 0 0 1-.765 1.846l-6.258 6.258c-.459.459-1.07.712-1.72.712z" fill="#000"/>
    <path fill-rule="evenodd" clip-rule="evenodd" d="M16.442 8.264a.62.62 0 0 1-.441-.184l-3.805-3.805a.625.625 0 0 1 .883-.884l3.805 3.806a.624.624 0 0 1-.442 1.067" fill="#000"/>
</svg>
