<svg width="14" height="14" viewBox="0 0 14 14" fill="none" xmlns="http://www.w3.org/2000/svg">
<path fill-rule="evenodd" clip-rule="evenodd" d="M9.87185 5.95019C9.63035 5.95019 9.43435 5.75419 9.43435 5.51269V4.26027C9.43435 3.03761 8.43977 2.04302 7.2171 2.04302H7.20777C6.61685 2.04302 6.06327 2.27052 5.64502 2.68527C5.22385 3.10177 4.9911 3.65769 4.98877 4.25036V5.51269C4.98877 5.75419 4.79277 5.95019 4.55127 5.95019C4.30977 5.95019 4.11377 5.75419 4.11377 5.51269V4.26027C4.11727 3.42027 4.44219 2.64502 5.02844 2.06402C5.61527 1.48244 6.38994 1.14586 7.21885 1.16802C8.92219 1.16802 10.3094 2.55519 10.3094 4.26027V5.51269C10.3094 5.75419 10.1134 5.95019 9.87185 5.95019Z" fill="#1F28EB"/>
<path fill-rule="evenodd" clip-rule="evenodd" d="M4.983 5.9082C4.00416 5.9082 3.2085 6.70387 3.2085 7.6827V10.1846C3.2085 11.1635 4.00416 11.9591 4.983 11.9591H9.44025C10.4185 11.9591 11.2147 11.1635 11.2147 10.1846V7.6827C11.2147 6.70387 10.4185 5.9082 9.44025 5.9082H4.983ZM9.44025 12.8341H4.983C3.52175 12.8341 2.3335 11.6459 2.3335 10.1846V7.6827C2.3335 6.22145 3.52175 5.0332 4.983 5.0332H9.44025C10.9015 5.0332 12.0897 6.22145 12.0897 7.6827V10.1846C12.0897 11.6459 10.9015 12.8341 9.44025 12.8341Z" fill="#1F28EB"/>
<path fill-rule="evenodd" clip-rule="evenodd" d="M7.21143 10.0192C6.96993 10.0192 6.77393 9.82322 6.77393 9.58172V8.28613C6.77393 8.04463 6.96993 7.84863 7.21143 7.84863C7.45293 7.84863 7.64893 8.04463 7.64893 8.28613V9.58172C7.64893 9.82322 7.45293 10.0192 7.21143 10.0192Z" fill="#1F28EB"/>
</svg>
