<svg width="22" height="22" viewBox="0 0 22 22" fill="none" xmlns="http://www.w3.org/2000/svg">
    <path opacity=".4" d="M20.167 14.612a4.626 4.626 0 0 1-4.61 4.639H6.463a4.626 4.626 0 0 1-4.629-4.62v-.01s.005-4.057.013-6.097c0-.383.44-.598.74-.36a998 998 0 0 1 6.122 4.92c.65.522 1.476.816 2.32.816a3.68 3.68 0 0 0 2.318-.826c.049-.032 3.857-3.088 6.068-4.844.3-.24.742-.025.743.357.01 2.025.01 6.025.01 6.025" fill="#1A1A27"/>
    <path d="M19.687 5.201A4.615 4.615 0 0 0 15.61 2.75H6.463c-1.72 0-3.282.955-4.076 2.451a.792.792 0 0 0 .203.988l6.806 5.444a2.591 2.591 0 0 0 1.632.577H11.046c.578 0 1.155-.192 1.632-.577l6.806-5.444a.792.792 0 0 0 .203-.988" fill="#1A1A27"/>
</svg>
