<svg width="22" height="22" viewBox="0 0 22 22" fill="none" xmlns="http://www.w3.org/2000/svg">
    <path d="M18.123 10.675c-.67-.782-.974-1.46-.974-2.611v-.392c0-1.5-.346-2.467-1.096-3.433-1.157-1.501-3.105-2.406-5.012-2.406h-.08c-1.868 0-3.754.863-4.931 2.303-.792.986-1.178 1.995-1.178 3.536v.392c0 1.151-.284 1.829-.973 2.61-.508.577-.67 1.317-.67 2.118 0 .803.263 1.563.792 2.18a4.155 4.155 0 0 0 2.658 1.295c1.44.165 2.88.227 4.342.227 1.46 0 2.9-.104 4.342-.227a4.154 4.154 0 0 0 2.658-1.295 3.312 3.312 0 0 0 .791-2.18c0-.8-.162-1.541-.67-2.117" fill="#1A1A27"/>
    <path opacity=".4" d="M12.843 17.626c-.459-.098-3.251-.098-3.71 0-.391.09-.815.301-.815.763.023.44.281.829.638 1.075v.001c.461.36 1.003.59 1.57.671.303.042.611.04.925 0a3.332 3.332 0 0 0 1.57-.67v-.002c.356-.246.614-.635.637-1.075 0-.462-.424-.672-.815-.763" fill="#1A1A27"/>
</svg>
