<svg width="14" height="14" viewBox="0 0 14 14" fill="none" xmlns="http://www.w3.org/2000/svg">
<mask id="mask0" style="mask-type:alpha" maskUnits="userSpaceOnUse" x="2" y="8" width="10" height="5">
<path fill-rule="evenodd" clip-rule="evenodd" d="M2.3335 8.45605H11.5734V12.7576H2.3335V8.45605Z" fill="white"/>
</mask>
<g mask="url(#mask0)">
<path fill-rule="evenodd" clip-rule="evenodd" d="M6.95408 9.33105C4.4685 9.33105 3.2085 9.75805 3.2085 10.601C3.2085 11.4515 4.4685 11.8826 6.95408 11.8826C9.43908 11.8826 10.6985 11.4556 10.6985 10.6126C10.6985 9.76214 9.43908 9.33105 6.95408 9.33105ZM6.95408 12.7576C5.81133 12.7576 2.3335 12.7576 2.3335 10.601C2.3335 8.6783 4.97075 8.45605 6.95408 8.45605C8.09683 8.45605 11.5735 8.45605 11.5735 10.6126C11.5735 12.5353 8.93683 12.7576 6.95408 12.7576Z" fill="#1F28EB"/>
</g>
<mask id="mask1" style="mask-type:alpha" maskUnits="userSpaceOnUse" x="3" y="1" width="8" height="7">
<path fill-rule="evenodd" clip-rule="evenodd" d="M3.85596 1.16699H10.051V7.36118H3.85596V1.16699Z" fill="white"/>
</mask>
<g mask="url(#mask1)">
<path fill-rule="evenodd" clip-rule="evenodd" d="M6.95406 1.99999C5.70514 1.99999 4.68898 3.01558 4.68898 4.26449C4.68489 5.50933 5.69348 6.52433 6.93714 6.52899L6.95406 6.94549V6.52899C8.20239 6.52899 9.21797 5.51283 9.21797 4.26449C9.21797 3.01558 8.20239 1.99999 6.95406 1.99999ZM6.95406 7.36141H6.93539C5.23089 7.35616 3.85014 5.96608 3.85598 4.26274C3.85598 2.55649 5.24548 1.16699 6.95406 1.16699C8.66206 1.16699 10.051 2.55649 10.051 4.26449C10.051 5.97249 8.66206 7.36141 6.95406 7.36141Z" fill="#1F28EB"/>
</g>
</svg>
