<svg width="14" height="14" viewBox="0 0 14 14" fill="none" xmlns="http://www.w3.org/2000/svg">
<mask id="mask0" style="mask-type:alpha" maskUnits="userSpaceOnUse" x="2" y="1" width="11" height="13">
<path fill-rule="evenodd" clip-rule="evenodd" d="M2.3335 1.16699H12.2308V13.0411H2.3335V1.16699Z" fill="white"/>
</mask>
<g mask="url(#mask0)">
<path fill-rule="evenodd" clip-rule="evenodd" d="M7.28215 2.04199C6.78749 2.04199 3.66665 3.14099 3.30674 3.44141C3.20057 3.54816 3.19649 3.73366 3.21924 4.97557C3.22974 5.57408 3.24432 6.38724 3.24432 7.51307C3.24432 10.547 6.58215 11.8939 7.28157 12.1418C7.9804 11.8927 11.32 10.5382 11.32 7.51307C11.32 6.38608 11.3346 5.57233 11.3457 4.97383C11.3678 3.73308 11.3637 3.54758 11.2512 3.43558C10.8982 3.14099 7.77682 2.04199 7.28215 2.04199ZM7.28215 13.0413C7.23957 13.0413 7.19699 13.0355 7.15557 13.0227C6.96015 12.9637 2.36932 11.5276 2.36932 7.51308C2.36932 6.39482 2.35474 5.58574 2.34424 4.99191C2.3174 3.50849 2.31157 3.19933 2.69482 2.81666C3.15274 2.35758 6.62065 1.16699 7.28215 1.16699C7.94307 1.16699 11.411 2.35758 11.8701 2.81666C12.2527 3.19933 12.2469 3.50849 12.2201 4.99016C12.2096 5.58399 12.195 6.39307 12.195 7.51308C12.195 11.5276 7.60415 12.9637 7.40874 13.0227C7.36732 13.0355 7.32474 13.0413 7.28215 13.0413Z" fill="#1F28EB"/>
</g>
<path fill-rule="evenodd" clip-rule="evenodd" d="M6.8702 8.47017C6.75411 8.47017 6.6427 8.42408 6.56045 8.34183L5.45678 7.237C5.28645 7.06608 5.28645 6.78842 5.45736 6.61808C5.6277 6.44717 5.90536 6.44717 6.07628 6.61808L6.8702 7.41317L8.83486 5.4485C9.00578 5.27758 9.28228 5.27758 9.4532 5.4485C9.62411 5.61942 9.62411 5.8965 9.4532 6.06742L7.17936 8.34183C7.0977 8.42408 6.98628 8.47017 6.8702 8.47017Z" fill="#1F28EB"/>
</svg>
