<svg xmlns="http://www.w3.org/2000/svg" width="18" height="18" fill="none" viewBox="0 0 18 18">
    <path fill="#1F28EB" fill-rule="evenodd" d="M13.463.975h.074c.313 0 .514 0 .69.02 1.461.164 2.614 1.317 2.778 2.777.02.176.02.378.02.69v.075c0 .313 0 .514-.02.69-.164 1.46-1.317 2.613-2.777 2.778-.176.02-.378.02-.69.02h-.075c-.313 0-.514 0-.69-.02-1.461-.165-2.614-1.317-2.778-2.778-.02-.176-.02-.378-.02-.69V4.5v-.038c0-.312 0-.514.02-.69.165-1.46 1.317-2.613 2.777-2.778.177-.02.378-.02.69-.02zm.037 1.05c-.363 0-.5 0-.61.013-.974.11-1.742.878-1.852 1.851-.012.11-.013.248-.013.61 0 .363 0 .5.013.61.11.974.878 1.743 1.852 1.852.11.013.247.014.61.014s.5-.001.61-.014c.974-.11 1.742-.878 1.852-1.851.012-.11.013-.248.013-.61 0-.363 0-.5-.013-.61-.11-.974-.878-1.742-1.852-1.852-.11-.013-.247-.013-.61-.013z" clip-rule="evenodd"/>
    <path fill="#373737" fill-rule="evenodd" d="M13.463 9.225h.074c.313 0 .514 0 .69.02 1.461.164 2.614 1.317 2.778 2.777.02.176.02.378.02.69v.075c0 .313 0 .514-.02.69-.164 1.46-1.317 2.613-2.777 2.778-.176.02-.378.02-.69.02h-.075c-.313 0-.514 0-.69-.02-1.461-.165-2.614-1.317-2.778-2.778-.02-.176-.02-.377-.02-.69v-.037-.038c0-.312 0-.514.02-.69.165-1.46 1.317-2.613 2.777-2.778.177-.02.378-.02.69-.02zm.037 1.05c-.363 0-.5 0-.61.013-.974.11-1.742.878-1.852 1.851-.012.11-.013.248-.013.61 0 .363 0 .5.013.61.11.974.878 1.743 1.852 1.852.11.013.247.014.61.014s.5-.001.61-.014c.974-.11 1.742-.878 1.852-1.851.012-.11.013-.248.013-.61 0-.363 0-.5-.013-.61-.11-.974-.878-1.742-1.852-1.852-.11-.013-.247-.013-.61-.013zM4.463.975h.074c.313 0 .515 0 .69.02 1.461.164 2.614 1.317 2.778 2.777.02.176.02.378.02.69v.075c0 .313 0 .514-.02.69-.164 1.46-1.317 2.613-2.777 2.778-.176.02-.378.02-.69.02h-.075c-.313 0-.514 0-.69-.02C2.311 7.84 1.158 6.688.994 5.227c-.02-.176-.02-.378-.02-.69V4.5v-.038c0-.312 0-.514.02-.69.164-1.46 1.317-2.613 2.777-2.778.177-.02.378-.02.69-.02zm.037 1.05c-.362 0-.5 0-.61.013-.974.11-1.742.878-1.852 1.851-.012.11-.013.248-.013.61 0 .363 0 .5.013.61.11.974.878 1.743 1.852 1.852.11.013.248.014.61.014.363 0 .5-.001.61-.014.974-.11 1.742-.878 1.852-1.851.012-.11.013-.248.013-.61 0-.363 0-.5-.013-.61-.11-.974-.878-1.742-1.852-1.852-.11-.013-.247-.013-.61-.013zM4.463 9.225h.074c.313 0 .515 0 .69.02 1.461.164 2.614 1.317 2.778 2.777.02.176.02.378.02.69v.075c0 .313 0 .514-.02.69-.164 1.46-1.317 2.613-2.777 2.778-.176.02-.378.02-.69.02h-.075c-.313 0-.514 0-.69-.02-1.461-.165-2.614-1.317-2.778-2.778-.02-.176-.02-.377-.02-.69v-.037-.038c0-.312 0-.514.02-.69.164-1.46 1.317-2.613 2.777-2.778.177-.02.378-.02.69-.02zm.037 1.05c-.362 0-.5 0-.61.013-.974.11-1.742.878-1.852 1.851-.012.11-.013.248-.013.61 0 .363 0 .5.013.61.11.974.878 1.743 1.852 1.852.11.013.248.014.61.014.363 0 .5-.001.61-.014.974-.11 1.742-.878 1.852-1.851.012-.11.013-.248.013-.61 0-.363 0-.5-.013-.61-.11-.974-.878-1.742-1.852-1.852-.11-.013-.247-.013-.61-.013z" clip-rule="evenodd"/>
</svg>
