<svg width="18" height="18" fill="none" xmlns="http://www.w3.org/2000/svg">
    <path d="M6.25 9h7.5" stroke="#1F28EB" stroke-width="1.4" stroke-linecap="round"/>
    <path stroke="#1F28EB" stroke-width="1.2" stroke-linecap="round" d="M14.152 9 12 6.849M14.151 9 12 11.152"/>
    <path d="M8.625 2.95a.7.7 0 1 0 0-1.4v1.4zm0 13.5a.7.7 0 1 0 0-1.4v1.4zM3.227 4.893l.697.062-.697-.062zm0 8.214.697-.062-.697.062zm5.398 1.943H6.157v1.4H8.625v-1.4zM6.157 2.95h2.468v-1.4H6.157v1.4zM3.924 13.045C3.808 11.74 3.7 10.205 3.7 9H2.3c0 1.27.112 2.856.23 4.17l1.394-.125zM3.7 9c0-1.205.108-2.74.224-4.045l-1.395-.124C2.412 6.144 2.3 7.73 2.3 9h1.4zm2.457-7.45c-1.867 0-3.46 1.397-3.628 3.28l1.395.125C4.025 3.818 4.99 2.95 6.157 2.95v-1.4zm0 13.5c-1.167 0-2.132-.868-2.233-2.005l-1.395.124c.168 1.884 1.76 3.281 3.628 3.281v-1.4z" fill="#130F26"/>
</svg>
