<svg width="18" height="18" fill="none" xmlns="http://www.w3.org/2000/svg">
    <path fill-rule="evenodd" clip-rule="evenodd" d="M2.25 6.224h.926c1.065 0 1.823 0 2.412-.06.58-.06.936-.171 1.214-.357.27-.18.502-.412.682-.683.186-.277.298-.633.357-1.213.06-.589.06-1.347.06-2.412h1.05v.03c0 1.028 0 1.84-.065 2.488-.068.663-.209 1.212-.529 1.69a3.525 3.525 0 0 1-.972.973c-.48.32-1.028.461-1.69.529-.649.065-1.46.065-2.49.065H2.25v-1.05z" fill="#fff"/>
    <path fill-rule="evenodd" clip-rule="evenodd" d="M9.426.975h.58c1.099 0 1.966 0 2.655.074.706.077 1.287.237 1.786.599.3.217.562.48.78.78.362.498.522 1.08.598 1.785.075.69.075 1.557.075 2.655v4.263c0 1.098 0 1.966-.075 2.655-.076.706-.236 1.287-.598 1.786-.218.299-.48.562-.78.78-.499.362-1.08.521-1.786.598-.69.075-1.556.075-2.655.075H7.62c-1.099 0-1.966 0-2.655-.075-.706-.076-1.287-.236-1.786-.599-.3-.217-.562-.48-.78-.78-.362-.498-.522-1.08-.598-1.785-.075-.69-.075-1.557-.075-2.655V8.306c0-1.02 0-1.67.22-2.263.072-.196.162-.385.268-.565.321-.545.825-.955 1.616-1.6l.08-.064L5.76 2.305l.06-.048c.597-.487.977-.797 1.423-.99.147-.064.299-.118.453-.161.468-.132.958-.132 1.73-.131zm.077 1.05c-.873 0-1.21.004-1.522.092-.109.03-.215.068-.319.113-.297.129-.561.338-1.238.89L4.572 4.627c-.899.732-1.24 1.02-1.455 1.383a2.475 2.475 0 0 0-.188.396c-.146.396-.154.843-.154 2.001V11.1c0 1.136 0 1.947.068 2.573.067.616.194.992.405 1.281.152.21.337.395.547.548.29.21.665.337 1.282.404.626.068 1.436.069 2.573.069h2.325c1.136 0 1.947-.001 2.573-.069.616-.067.992-.193 1.282-.404.21-.153.395-.338.547-.548.21-.29.337-.665.404-1.281.068-.627.069-1.437.069-2.573V6.9c0-1.137 0-1.947-.069-2.573-.067-.617-.193-.992-.404-1.282a2.476 2.476 0 0 0-.547-.548c-.29-.21-.666-.337-1.282-.404-.626-.068-1.437-.068-2.573-.068h-.472z" fill="#fff"/>
    <path fill-rule="evenodd" clip-rule="evenodd" d="M12.75 13.275c0 .29-.235.525-.525.525h-6.45a.525.525 0 1 1 0-1.05h6.45c.29 0 .525.235.525.525zM10.5 10.275c0 .29-.235.525-.525.525h-4.2a.525.525 0 1 1 0-1.05h4.2c.29 0 .525.235.525.525z" fill="#fff"/>
</svg>
