<svg xmlns="http://www.w3.org/2000/svg" width="30" height="30" fill="none" viewBox="0 0 30 30">
    <path fill="#222628" fill-rule="evenodd" d="M3.75 10.375h1.544c1.774 0 3.038-.001 4.02-.1.966-.1 1.559-.286 2.022-.595.45-.301.837-.688 1.138-1.138.31-.463.496-1.057.594-2.023.1-.98.101-2.245.101-4.019h1.75v.049c0 1.714 0 3.067-.11 4.147-.112 1.105-.347 2.02-.88 2.818-.429.642-.98 1.192-1.62 1.62-.8.534-1.714.769-2.819.881-1.08.11-2.433.11-4.147.11H3.75v-1.75z" clip-rule="evenodd"/>
    <path fill="#222628" fill-rule="evenodd" d="M15.898 1.625h1.404c1.83 0 3.276 0 4.425.124 1.176.128 2.145.394 2.976.998.499.362.938.801 1.3 1.3.604.831.87 1.8.998 2.976.124 1.149.124 2.594.124 4.425v7.104c0 1.83 0 3.276-.124 4.425-.128 1.176-.394 2.145-.998 2.976-.362.499-.801.938-1.3 1.3-.83.604-1.8.87-2.976.998-1.149.124-2.594.124-4.425.124h-4.604c-1.83 0-3.276 0-4.425-.124-1.176-.128-2.145-.394-2.976-.998-.499-.362-.938-.801-1.3-1.3-.604-.83-.87-1.8-.997-2.976-.125-1.149-.125-2.594-.125-4.425v-4.461-.174c0-1.73 0-2.83.378-3.833.124-.331.278-.65.46-.952.552-.92 1.414-1.602 2.771-2.676l.136-.108 3.272-2.59.098-.077c.986-.781 1.613-1.278 2.343-1.588.241-.103.49-.189.742-.258.765-.21 1.565-.21 2.823-.21zm.124 1.75c-1.424 0-1.974.007-2.483.147-.178.049-.352.11-.522.182-.486.206-.922.542-2.038 1.426L7.707 7.72c-1.54 1.22-2.126 1.7-2.494 2.312-.127.213-.235.437-.323.669-.252.668-.265 1.426-.265 3.39V18.5c0 1.894.001 3.245.114 4.288.112 1.028.323 1.654.674 2.137.254.35.562.658.912.912.484.351 1.11.563 2.137.674 1.043.113 2.394.114 4.288.114h4.5c1.894 0 3.245-.001 4.288-.114 1.028-.111 1.654-.323 2.137-.674.35-.254.658-.562.912-.912.351-.483.563-1.11.674-2.137.113-1.043.114-2.394.114-4.288v-7c0-1.894-.001-3.245-.114-4.288-.111-1.028-.323-1.653-.674-2.137-.254-.35-.562-.658-.912-.912-.483-.351-1.11-.562-2.137-.674-1.043-.113-2.394-.114-4.288-.114h-1.228z" clip-rule="evenodd"/>
    <path fill="#1F28EB" fill-rule="evenodd" d="M15 13.875c.414 0 .75.336.75.75v6.254l1.41-1.41c.292-.292.767-.292 1.06 0 .293.294.293.768 0 1.061l-2.248 2.248c-.537.537-1.407.537-1.944 0L11.78 20.53c-.292-.293-.292-.767 0-1.06.293-.293.768-.293 1.061 0l1.41 1.409v-6.254c0-.414.335-.75.75-.75z" clip-rule="evenodd"/>
</svg>
