<svg width="20" height="20" fill="none" xmlns="http://www.w3.org/2000/svg">
    <path fill-rule="evenodd" clip-rule="evenodd" d="M8.468 2.705c-.285.252-.45.606-.529 1.02-.055.29-.228.526-.39.693-.17.176-.378.33-.592.45-.214.12-.452.22-.69.274-.226.053-.516.08-.79-.019-.376-.134-.74-.166-1.077-.052-.333.113-.727.396-1.113 1.057-.458.782-.492 1.326-.396 1.697.099.383.366.698.73.957.225.16.364.39.448.597.086.212.132.445.145.668.013.224-.005.46-.067.682-.06.216-.174.462-.386.646-.336.292-.596.634-.705 1.024-.104.37-.09.851.234 1.478.388.62.794.87 1.15.959.375.093.785.03 1.197-.132.266-.104.541-.09.763-.042.228.049.451.144.647.261.197.118.386.27.537.447.147.173.29.41.323.693.055.465.204.874.49 1.165.275.279.747.522 1.603.522s1.328-.243 1.603-.522c.286-.291.435-.7.49-1.165.033-.284.176-.52.323-.693.151-.178.34-.33.537-.447a2.17 2.17 0 0 1 .647-.261c.222-.048.498-.062.763.042.413.162.822.225 1.197.132.356-.09.762-.338 1.15-.959.364-.702.34-1.226.186-1.623-.166-.429-.513-.792-.916-1.085-.405-.293-.533-.792-.533-1.17 0-.377.128-.875.533-1.169.403-.292.75-.656.916-1.084.153-.398.178-.921-.186-1.624-.388-.62-.794-.87-1.15-.958-.375-.094-.784-.031-1.197.131-.265.105-.541.09-.763.043a2.172 2.172 0 0 1-.647-.262 2.17 2.17 0 0 1-.537-.447 1.325 1.325 0 0 1-.323-.692c-.055-.466-.204-.875-.49-1.165-.275-.28-.747-.522-1.603-.522-.791 0-1.253.208-1.532.455zm-.774-.874c.542-.479 1.302-.748 2.306-.748 1.09 0 1.891.318 2.435.87.532.541.745 1.234.817 1.848l-.002-.01s.01.03.055.083c.056.065.141.138.247.2.105.064.21.105.294.123.062.013.092.01.098.01.545-.214 1.211-.347 1.899-.175.707.176 1.35.652 1.87 1.495l.01.017.01.018c.513.976.54 1.855.251 2.604-.278.72-.82 1.245-1.315 1.606a.165.165 0 0 0-.024.044.512.512 0 0 0-.031.184c0 .074.013.139.031.184.011.028.02.04.024.044.496.36 1.037.886 1.315 1.605.29.749.262 1.629-.25 2.605l-.01.018-.01.017c-.52.842-1.164 1.318-1.871 1.495-.688.171-1.354.038-1.9-.175-.005 0-.035-.004-.097.01-.085.018-.19.059-.294.121a1.01 1.01 0 0 0-.247.202c-.045.053-.054.082-.055.082l.002-.01c-.072.614-.285 1.307-.817 1.848-.544.552-1.345.87-2.435.87s-1.891-.318-2.434-.87c-.532-.541-.746-1.233-.817-1.848l.001.01s-.01-.029-.055-.082a1.011 1.011 0 0 0-.246-.202 1.016 1.016 0 0 0-.294-.122c-.063-.013-.093-.01-.098-.01-.546.214-1.212.347-1.9.176-.706-.177-1.35-.653-1.87-1.495l-.01-.017-.01-.018c-.453-.863-.53-1.655-.334-2.353.19-.68.618-1.202 1.056-1.585.003-.004.018-.028.034-.084a.946.946 0 0 0 .026-.3.972.972 0 0 0-.062-.3c-.025-.062-.046-.085-.048-.087-.494-.353-.987-.874-1.177-1.611-.195-.75-.048-1.612.518-2.58.49-.838 1.083-1.348 1.747-1.572.656-.222 1.297-.135 1.835.056 0 0 .043.007.142-.016.111-.026.246-.079.38-.155.135-.075.249-.163.327-.244.067-.069.083-.107.084-.108.111-.578.366-1.196.9-1.668z" fill="#130F26"/>
    <path fill-rule="evenodd" clip-rule="evenodd" d="M10 11.333a1.333 1.333 0 1 0 0-2.666 1.333 1.333 0 0 0 0 2.666zm0 1.167a2.5 2.5 0 1 0 0-5 2.5 2.5 0 0 0 0 5z" fill="#1F28EB"/>
</svg>
