<svg xmlns="http://www.w3.org/2000/svg" width="30" height="30" fill="none" viewBox="0 0 30 30">
    <path fill="#222628" fill-rule="evenodd" d="M3.75 10.375h1.544c1.774 0 3.038-.001 4.02-.1.966-.1 1.559-.286 2.022-.595.45-.301.837-.688 1.138-1.138.31-.463.496-1.057.594-2.023.1-.98.101-2.245.101-4.019h1.75v.049c0 1.714 0 3.067-.11 4.147-.112 1.105-.347 2.02-.88 2.818-.429.642-.98 1.192-1.62 1.62-.8.534-1.714.769-2.819.881-1.08.11-2.433.11-4.147.11H3.75v-1.75z" clip-rule="evenodd"/>
    <path fill="#222628" fill-rule="evenodd" d="M15.71 1.625h.968c1.83 0 3.275 0 4.424.124 1.176.128 2.145.394 2.976.998.499.362.938.801 1.3 1.3.604.831.87 1.8.998 2.976.124 1.149.124 2.594.124 4.425v7.104c0 1.83 0 3.276-.124 4.425-.128 1.176-.394 2.145-.998 2.976-.362.499-.801.938-1.3 1.3-.83.604-1.8.87-2.976.998-1.149.124-2.594.124-4.425.124h-3.98c-1.83 0-3.275 0-4.424-.124-1.176-.128-2.145-.394-2.976-.998-.499-.362-.938-.801-1.3-1.3-.604-.83-.87-1.8-.997-2.976-.125-1.149-.125-2.594-.125-4.425v-4.537-.171c0-1.701 0-2.783.366-3.772.121-.327.27-.641.447-.94.536-.91 1.375-1.593 2.694-2.667l.132-.108 3.088-2.514.099-.08c.996-.812 1.63-1.328 2.372-1.65.245-.108.498-.198.756-.27.78-.218 1.596-.218 2.882-.218zm.128 1.75c-1.455 0-2.017.008-2.537.153-.18.051-.358.114-.53.189-.495.215-.936.564-2.064 1.483L7.62 7.714c-1.496 1.22-2.066 1.7-2.423 2.305-.124.21-.229.432-.314.66-.244.66-.257 1.405-.257 3.335V18.5c0 1.894.001 3.245.114 4.288.112 1.028.323 1.654.674 2.137.254.35.562.658.912.912.484.351 1.11.563 2.137.674 1.043.113 2.394.114 4.288.114h3.875c1.894 0 3.245-.001 4.288-.114 1.028-.111 1.654-.323 2.137-.674.35-.254.658-.562.912-.912.351-.483.563-1.11.674-2.137.113-1.043.114-2.394.114-4.288v-7c0-1.894-.001-3.245-.114-4.288-.111-1.028-.323-1.653-.674-2.137-.254-.35-.562-.658-.912-.912-.483-.351-1.11-.562-2.137-.674-1.043-.113-2.394-.114-4.288-.114h-.787z" clip-rule="evenodd"/>
    <path fill="#1F28EB" fill-rule="evenodd" d="M21.25 22.125c0 .483-.392.875-.875.875H9.625c-.483 0-.875-.392-.875-.875s.392-.875.875-.875h10.75c.483 0 .875.392.875.875zM17.5 17.125c0 .483-.392.875-.875.875h-7c-.483 0-.875-.392-.875-.875s.392-.875.875-.875h7c.483 0 .875.392.875.875z" clip-rule="evenodd"/>
</svg>
