<svg xmlns="http://www.w3.org/2000/svg" width="24" height="24" fill="none" viewBox="0 0 24 24">
    <path stroke="#929292" stroke-linecap="round" stroke-width="1.4" d="M11.2 22h1.602c2.998 0 4.498 0 5.55-.764.339-.247.637-.545.884-.885C20 19.3 20 17.8 20 14.8v-1.373c0-1.494 0-2.242-.25-2.915-.082-.222-.184-.437-.305-.64-.365-.62-.945-1.09-2.105-2.033L12 3.5 6.66 7.839c-1.16.942-1.74 1.413-2.105 2.032-.12.204-.223.419-.305.641-.25.673-.25 1.42-.25 2.915V14.8c0 3 0 4.5.764 5.551.247.34.545.638.885.885C6.7 22 8.2 22 11.2 22z"/>
    <path stroke="#929292" stroke-linecap="round" stroke-width="1.6" d="M0.8 -0.8L13.717 -0.8" transform="matrix(-0.757719 0.652581 -0.757719 -0.652581 12 2)"/>
    <path stroke="#929292" stroke-linecap="round" stroke-width="1.6" d="M0.8 -0.8L13.717 -0.8" transform="matrix(0.757719 0.652581 0.757719 -0.652581 12 2)"/>
    <path stroke="#1F28EB" stroke-linecap="round" stroke-width="1.4" d="M9.7 18.142L13.8 18.142"/>
</svg>
