<svg width="14" height="14" viewBox="0 0 14 14" fill="none" xmlns="http://www.w3.org/2000/svg">
    <path fill-rule="evenodd" clip-rule="evenodd" d="M8.456 9.914a.408.408 0 0 1-.578 0l.253-.253-.253.253-.027-.027-.074-.076a64.567 64.567 0 0 1-1.074-1.11 23.567 23.567 0 0 1-.817-.905 5.311 5.311 0 0 1-.287-.366 1.508 1.508 0 0 1-.102-.165A.585.585 0 0 1 5.425 7c0-.125.052-.227.072-.265.029-.056.065-.112.102-.165a5.31 5.31 0 0 1 .287-.366c.226-.269.524-.594.817-.906a59.77 59.77 0 0 1 1.074-1.11l.074-.075.027-.026.289.288.289.289-.026.025-.073.074a65.042 65.042 0 0 0-1.06 1.095c-.29.308-.575.62-.787.872-.09.107-.162.198-.215.27.053.072.125.163.215.27.212.251.497.564.788.872a59.092 59.092 0 0 0 1.059 1.095l.073.073.025.026c.16.16.16.418 0 .578zM6.223 6.89c-.005-.01-.006-.01 0 0zm2.233-2.804c.16.16.16.418 0 .578l-.29-.29-.288-.288c.16-.16.418-.16.578 0z" fill="#fff"/>
</svg>
