<svg width="18" height="18" viewBox="0 0 18 18" fill="none" xmlns="http://www.w3.org/2000/svg">
    <path opacity=".4" d="M12.056 1.5h2.54c1.051 0 1.904.86 1.904 1.92v2.56c0 1.061-.853 1.92-1.904 1.92h-2.54a1.912 1.912 0 0 1-1.904-1.92V3.42c0-1.06.853-1.92 1.904-1.92" fill="#009EF7"/>
    <path fill-rule="evenodd" clip-rule="evenodd" d="M3.404 1.5h2.54c1.051 0 1.903.86 1.903 1.92v2.56c0 1.061-.852 1.92-1.904 1.92h-2.54A1.912 1.912 0 0 1 1.5 5.98V3.42c0-1.06.852-1.92 1.904-1.92zm0 8.6h2.54c1.051 0 1.903.859 1.903 1.92v2.56c0 1.06-.852 1.92-1.904 1.92h-2.54A1.912 1.912 0 0 1 1.5 14.58v-2.56c0-1.061.852-1.92 1.904-1.92zm11.192 0h-2.54c-1.051 0-1.903.859-1.903 1.92v2.56c0 1.06.852 1.92 1.904 1.92h2.54c1.05 0 1.903-.86 1.903-1.92v-2.56c0-1.061-.852-1.92-1.904-1.92z" fill="#009EF7"/>
</svg>
