<svg width="18" height="18" viewBox="0 0 18 18" fill="none" xmlns="http://www.w3.org/2000/svg">
    <path opacity=".4" d="M12.143 1.5H5.857c-2.28 0-3.607 1.335-3.607 3.622v7.748c0 2.325 1.328 3.63 3.607 3.63h6.286c2.317 0 3.607-1.305 3.607-3.63V5.123c0-2.288-1.29-3.623-3.607-3.623" fill="#828297"/>
    <path fill-rule="evenodd" clip-rule="evenodd" d="M6.06 4.987v.008a.585.585 0 0 0 0 1.17h2.242a.588.588 0 0 0 .586-.593.586.586 0 0 0-.586-.585H6.061zm5.88 4.568H6.06a.585.585 0 0 1 0-1.17h5.88a.586.586 0 0 1 0 1.17zm0 3.427H6.06a.583.583 0 0 1-.562-.27.596.596 0 0 1 .563-.907h5.88c.299.03.525.285.525.592 0 .3-.226.555-.525.585z" fill="#828297"/>
</svg>
