<svg width="18" height="18" viewBox="0 0 18 18" fill="none" xmlns="http://www.w3.org/2000/svg">
    <path opacity=".4" d="M14.995 14.215h-4.27a.762.762 0 0 0-.756.767c0 .425.339.768.755.768h4.271a.762.762 0 0 0 .756-.768.762.762 0 0 0-.756-.767" fill="#fff" fill-opacity=".3"/>
    <path d="m7.732 5.178 4.047 3.27a.233.233 0 0 1 .038.322L7.019 15.02a1.575 1.575 0 0 1-1.222.613l-2.62.032a.299.299 0 0 1-.293-.234l-.595-2.588c-.103-.475 0-.967.301-1.346l4.822-6.281a.224.224 0 0 1 .32-.039" fill="#fff" fill-opacity=".3"/>
    <path opacity=".4" d="m13.59 6.5-.78.973a.224.224 0 0 1-.318.036c-.948-.767-3.377-2.737-4.05-3.283a.231.231 0 0 1-.033-.324l.752-.934c.683-.879 1.873-.96 2.834-.194l1.103.88c.452.354.754.821.857 1.313.12.541-.008 1.073-.365 1.532" fill="#fff" fill-opacity=".3"/>
</svg>
