<svg width="18" height="18" viewBox="0 0 18 18" fill="none" xmlns="http://www.w3.org/2000/svg">
    <path opacity=".4" d="M5.473 4.835c0-1.839 1.545-3.335 3.443-3.335h3.774c1.895 0 3.435 1.493 3.435 3.327v8.337c0 1.839-1.544 3.336-3.442 3.336H8.908c-1.894 0-3.435-1.493-3.435-3.329V4.835z" fill="#fff" fill-opacity=".3"/>
    <path d="M12.028 8.59 9.802 6.41a.593.593 0 0 0-.83.001.572.572 0 0 0 .002.817l1.219 1.195H2.462A.582.582 0 0 0 1.875 9c0 .319.263.577.587.577h7.73l-1.218 1.195a.571.571 0 0 0-.001.817.59.59 0 0 0 .83.002l2.225-2.182a.574.574 0 0 0 0-.818" fill="#fff" fill-opacity=".3"/>
</svg>
