<svg width="18" height="19" viewBox="0 0 18 19" fill="none" xmlns="http://www.w3.org/2000/svg">
    <path fill-rule="evenodd" clip-rule="evenodd" d="M5.753 1.832h6.502c2.542 0 4.245 1.785 4.245 4.44V12.4c0 2.648-1.703 4.432-4.245 4.432H5.752C3.21 16.832 1.5 15.048 1.5 12.4V6.272c0-2.655 1.71-4.44 4.253-4.44zm5.505 9.75a.65.65 0 0 0 0-.922L9.922 9.325l1.335-1.335a.66.66 0 0 0 0-.93.66.66 0 0 0-.93 0L9 8.395 7.665 7.06a.66.66 0 0 0-.93 0 .66.66 0 0 0 0 .93L8.07 9.325l-1.335 1.328a.66.66 0 0 0 .465 1.125.654.654 0 0 0 .465-.196L9 10.255l1.335 1.327a.617.617 0 0 0 .457.196.654.654 0 0 0 .466-.196z" fill="#130F26"/>
</svg>
