<svg width="18" height="19" viewBox="0 0 18 19" fill="none" xmlns="http://www.w3.org/2000/svg">
    <path fill-rule="evenodd" clip-rule="evenodd" d="M12.499 1.841a3.992 3.992 0 0 1 2.944 1.042 4.036 4.036 0 0 1 1.05 2.952v6.997a4.03 4.03 0 0 1-1.042 2.952 4.009 4.009 0 0 1-2.952 1.042H5.501a3.998 3.998 0 0 1-2.952-1.042 3.999 3.999 0 0 1-1.041-2.952V5.835a3.999 3.999 0 0 1 1.041-2.952A3.999 3.999 0 0 1 5.501 1.84H12.5zM8.236 12.967l5.042-5.057a1.19 1.19 0 0 0 0-1.67l-.974-.975a1.185 1.185 0 0 0-1.678 0l-.502.51a.2.2 0 0 0 0 .277s1.191 1.184 1.214 1.214c.082.09.135.21.135.344 0 .27-.218.495-.495.495a.47.47 0 0 1-.33-.135l-1.25-1.244a.163.163 0 0 0-.226 0L5.6 10.3a1.35 1.35 0 0 0-.398.929l-.044 1.776c0 .097.03.187.097.254a.356.356 0 0 0 .255.105h1.76c.36 0 .705-.142.967-.397z" fill="#130F26"/>
</svg>
