<svg width="14" height="14" viewBox="0 0 14 14" fill="none" xmlns="http://www.w3.org/2000/svg">
    <path fill-rule="evenodd" clip-rule="evenodd" d="M4.723 7a2.268 2.268 0 0 0 2.276 2.257A2.267 2.267 0 0 0 9.27 7 2.268 2.268 0 0 0 7 4.737 2.269 2.269 0 0 0 4.722 7zm5.623-3.473c.996.769 1.844 1.894 2.453 3.303a.424.424 0 0 1 0 .334c-1.218 2.817-3.387 4.502-5.8 4.502h-.005c-2.408 0-4.576-1.685-5.794-4.502a.425.425 0 0 1 0-.334c1.218-2.817 3.386-4.497 5.794-4.497h.005c1.207 0 2.35.419 3.347 1.194zM7 8.407c.78 0 1.417-.634 1.417-1.409 0-.78-.637-1.414-1.417-1.414-.068 0-.137.006-.2.017a1.165 1.165 0 0 1-1.166 1.12h-.028c-.017.09-.029.181-.029.277 0 .775.638 1.409 1.423 1.409z" fill="#F2F5F7"/>
</svg>
