<svg width="18" height="18" viewBox="0 0 18 18" fill="none" xmlns="http://www.w3.org/2000/svg">
    <path d="M7.012 11.144c-2.973 0-5.512.459-5.512 2.294 0 1.837 2.523 2.312 5.512 2.312 2.973 0 5.512-.459 5.512-2.294 0-1.837-2.523-2.312-5.512-2.312" fill="#828297"/>
    <path opacity=".4" d="M7.013 9.394c2.024 0 3.647-1.59 3.647-3.572 0-1.983-1.623-3.572-3.647-3.572S3.365 3.839 3.365 5.822 4.99 9.394 7.012 9.394M12.13 5.887c0 1.01-.31 1.952-.853 2.734-.056.08-.006.19.092.206.137.023.277.036.42.04 1.424.036 2.701-.862 3.054-2.214.523-2.005-1.012-3.806-2.968-3.806a3.12 3.12 0 0 0-.613.06c-.027.007-.057.02-.071.042-.02.03-.005.068.014.093a4.81 4.81 0 0 1 .925 2.845" fill="#828297"/>
    <path d="M16.334 11.377c-.26-.544-.89-.917-1.846-1.1-.452-.108-1.675-.261-2.811-.24-.017.002-.027.014-.028.021-.002.011.003.029.025.041.525.254 2.556 1.361 2.3 3.695a.155.155 0 0 0 .176.174c.5-.07 1.785-.34 2.184-1.183a1.58 1.58 0 0 0 0-1.408" fill="#828297"/>
</svg>
