<svg width="18" height="18" viewBox="0 0 18 18" fill="none" xmlns="http://www.w3.org/2000/svg">
    <path d="M9.009 11.122c-1.204 0-2.177-.937-2.177-2.115 0-1.177.973-2.122 2.177-2.122 1.203 0 2.154.945 2.154 2.122 0 1.178-.95 2.115-2.154 2.115" fill="#828297"/>
    <path opacity=".4" d="M15.923 10.777a1.727 1.727 0 0 0-.621-.592c-.215-.105-.353-.277-.476-.48-.39-.645-.16-1.492.491-1.875a1.52 1.52 0 0 0 .567-2.123l-.513-.885a1.584 1.584 0 0 0-2.154-.57 1.48 1.48 0 0 1-1.931-.517 1.158 1.158 0 0 1-.177-.66 1.334 1.334 0 0 0-.207-.795 1.614 1.614 0 0 0-1.364-.78h-1.08a1.646 1.646 0 0 0-1.357.78c-.146.225-.23.503-.215.795a1.16 1.16 0 0 1-.176.66 1.472 1.472 0 0 1-1.924.518 1.593 1.593 0 0 0-2.162.57l-.513.884a1.533 1.533 0 0 0 .567 2.123c.652.383.881 1.23.498 1.875-.13.203-.268.375-.483.48-.26.143-.49.367-.613.592-.283.466-.268 1.05.016 1.538l.528.9a1.6 1.6 0 0 0 1.365.78c.26 0 .567-.075.812-.225.192-.127.422-.172.675-.172.758 0 1.395.622 1.41 1.364 0 .863.705 1.538 1.594 1.538h1.043c.881 0 1.586-.675 1.586-1.537a1.431 1.431 0 0 1 1.418-1.365c.245 0 .475.044.675.172a1.6 1.6 0 0 0 .812.225c.544 0 1.073-.3 1.357-.78l.536-.9c.276-.502.3-1.072.016-1.537" fill="#828297"/>
</svg>
